<svg version="1.2" xmlns="http://www.w3.org/2000/svg" viewBox="0 0 256 256" width="256" height="256">
	<title>bookord-circle-svg</title>
	<style>
		.s0 { fill: #202020 } 
		.s1 { fill: none } 
		.s2 { fill: #9ba19f } 
	</style>
	<g id="bg">
		<path id="circle" class="s0" d="m128 256c-70.8 0-128-57.2-128-128 0-70.8 57.2-128 128-128 70.8 0 128 57.2 128 128 0 70.8-57.2 128-128 128z"/>
	</g>
	<g id="B">
		<g id="Layer">
			<g id="top_">
				<path id="Layer" fill-rule="evenodd" class="s1" d="m79.4 89.4c-1.8 0-3.4 1.6-3.4 3.5 0 2 1.6 3.5 3.4 3.5h9.7v-7c0 0-9.7 0-9.7 0z"/>
				<path id="Layer" class="s2" d="m139.9 89.4h-50.8v7h50.8c1.9 0 3.4-1.5 3.4-3.5 0-1.9-1.5-3.5-3.4-3.5z"/>
			</g>
			<g id="bottom_">
				<path id="Layer" fill-rule="evenodd" class="s1" d="m82.5 164.6c-1.9 0-3.4 1.6-3.4 3.5 0 1.9 1.5 3.5 3.4 3.5h9.6v-7h-9.6z"/>
				<path id="Layer" class="s2" d="m142.8 164.2h-53.7v6.9h53.7c2 0 3.6-1.5 3.6-3.4 0-2-1.6-3.5-3.6-3.5z"/>
			</g>
			<g id="Layer">
				<path id="Layer" class="s2" d="m191 148.3q-4.7-9-12-14-7.2-4.9-14.8-5.5v-1.3q10.8-2.9 18.1-11.6 7.3-8.8 7.3-24.2 0-18.3-11.7-30.5-11.7-12.1-34.9-12.1h-53.9l-13.1-5-15.7-0.5 28.8 19.4h15.1 39.9q15 0.4 22.7 8.1 8.2 8.1 8.2 21c0 8.5-2.9 16.2-8.5 22q-8.5 8.8-22.4 8.8h-0.1-54.9l-14.5-5.5-14.3-0.5 28.8 19.4h57.2q10.5 0 18.3 4.4 7.8 4.4 12.2 12 4.4 7.5 4.4 16.7 0 12.6-8.8 20.9-8.7 8.3-26.8 8.3h-56.5l-13.1-5-15.7-0.5 28.7 19.4h56.9q25.6 0 37.7-12.2 12.1-12.2 12.1-30.8 0-12.3-4.7-21.2z"/>
				<path id="Layer" class="s2" d="m89.1 89.4l-23.7-9 0.8 0.6 22.9 15.4v-7z"/>
				<path id="Layer" class="s2" d="m89.1 164.2l-23.7-9.1 0.8 0.6 22.9 15.4v-6.9z"/>
			</g>
		</g>
	</g>
</svg>